# xmcd
#
# Track frame offsets:
#	150
#	11222
#	26851
#	39459
#	55326
#	67119
#	83848
#	95410
#	114266
#	124433
#	140623
#	154070
#
# Disc length: 2239 seconds
#
# Revision: 0
# Processed by: cddbd v1.5.1PL0 Copyright (c) Steve Scherf et al.
# Submitted via: EasyCDDAExtractor 7.5.0.1
#
DISCID=a808bd0c
DTITLE=Dale Adkins - Wings of Angels
DYEAR=1900
DGENRE=Bluegrass
TTITLE0=I am a Little Scholar
TTITLE1=House of Gold
TTITLE2=Wings of Angels
TTITLE3=By the Mark
TTITLE4=Red Clay Halo
TTITLE5=I want to Go Home
TTITLE6=The Rock I Stand On
TTITLE7=Farther Along
TTITLE8=I've Lived a Lot in My Time
TTITLE9=You Don't Have to Move that Mountain
TTITLE10=A Beautiful Life
TTITLE11=Keep on the Sunnyside
EXTD=
EXTT0=
EXTT1=
EXTT2=
EXTT3=
EXTT4=
EXTT5=
EXTT6=
EXTT7=
EXTT8=
EXTT9=
EXTT10=
EXTT11=
PLAYORDER=
